<svg xmlns="http://www.w3.org/2000/svg" width="46.066" height="36.687" viewBox="0 0 46.066 36.687">
  <path id="Path_24" data-name="Path 24" d="M239.5,66.818a26.546,26.546,0,0,0-1.776,7.427c-.369,2.291-.873,4.552-1.415,6.789a1.3,1.3,0,0,1-1.016.847,1.588,1.588,0,0,1-1.07-.936,5.3,5.3,0,0,1-.332-2.1,22.1,22.1,0,0,1,.4-3.035q1.27-7.087,2.572-14.163a13.1,13.1,0,0,1,.318-1.7c.576-1.751,2.064-2.339,3.02-.881,1.049,1.6,2.233,1.673,3.642,1.779,3.542.265,7.076.7,10.609,1.13q4.784.58,9.557,1.3a30.352,30.352,0,0,1,4.391,1c.3.092.641.919.628,1.392a1.725,1.725,0,0,1-.765,1.208,3.6,3.6,0,0,1-3.344-.181,10.153,10.153,0,0,0-3.3-1.155c-5.6-.481-11.2-.834-16.811-1.182a9.913,9.913,0,0,0-2.2.419c.915,3.91,3.324,6.232,4.66,9.4,1.308,3.1,2.782,6.088,4.106,9.18,1.382,3.223,2.723,6.477,3.985,9.78,1.2,3.135,2.267,6.349,3.366,9.451-.758.885-1.245.512-1.565-.168-1.182-2.519-2.345-5.052-3.464-7.617-1.624-3.722-3.243-7.45-4.789-11.224A105.615,105.615,0,0,0,240.6,67.914,8.222,8.222,0,0,0,239.5,66.818Z" transform="matrix(0.035, 0.999, -0.999, 0.035, 94.875, -235.778)" fill="#fff" fill-rule="evenodd"/>
</svg>
