<svg xmlns="http://www.w3.org/2000/svg" width="41.257" height="45.808" viewBox="0 0 41.257 45.808">
  <g id="Group_57" data-name="Group 57" transform="translate(-2742.157 -1488.409) rotate(-38)">
    <g id="Group_49" data-name="Group 49" transform="translate(1234 2871)">
      <path id="Path_22" data-name="Path 22" d="M1126.814,1037.6c.3-7.264.6-14.527.907-22.045,1.764-.229,3.259-.422,5.07-.659a7.113,7.113,0,0,0,.062-2.294c-.5-1.634-1.217-3.2-1.86-4.795-1.434-3.55-2.873-7.1-4.264-10.525.854-1.022,1.536-.638,1.938-.061a19.568,19.568,0,0,1,2.142,3.66,36.127,36.127,0,0,1,1.49,4.922,33.273,33.273,0,0,0,4.111,10.308,11.309,11.309,0,0,1,.838,2.459c-2.382.4-3.7-2.486-6.206-.923-1.308,2.926-.975,6.583-1.625,10.048C1128.79,1031.041,1128.381,1034.432,1126.814,1037.6Z" transform="translate(-1114.113 -996.644)" fill="#fff" fill-rule="evenodd"/>
      <path id="Path_23" data-name="Path 23" d="M1119.843,1001.6a79.117,79.117,0,0,1-6.373,10.932,18.071,18.071,0,0,0-1.532,2.063,3.1,3.1,0,0,0-.477,1.919c.184.811,1.073.811,1.792.728.854-.095,1.693-.315,2.546-.389,1.427-.123,2.194.647,2.035,2.031-.459,3.977-.966,7.947-1.414,11.925-.209,1.846-.3,3.707-.487,5.556-.065.654-.159.69-1.777,1.739-.53-3.182-.224-6.3-.44-9.388-.217-3.109.777-6.226.142-9.479-1.242-.327-2.341-.572-3.412-.908a1.525,1.525,0,0,1-1.06-2.316q4.35-6.62,8.781-13.185C1118.367,1002.53,1118.773,1002.369,1119.843,1001.6Z" transform="translate(-1109.132 -998.047)" fill="#fff" fill-rule="evenodd"/>
    </g>
  </g>
</svg>
