<svg xmlns="http://www.w3.org/2000/svg" width="86.168" height="114.827" viewBox="0 0 86.168 114.827">
  <path id="Path_13" data-name="Path 13" d="M469.849,244.686c-1.638-1.5-1.155-3.13-.842-4.658,1.259-6.135,2.265-12.347,3.985-18.353,5.18-18.076,11.565-35.716,20.129-52.506,2.175-4.263,4.38-8.513,6.536-12.786.391-.774.623-1.626,1.083-2.851-2.017-.033-3,1.08-4.122,1.838-1.671,1.129-3.281,2.352-5,3.392a3.9,3.9,0,0,1-2.114.32,1.983,1.983,0,0,1-1.45-2.924,7.357,7.357,0,0,1,1.5-1.562c4.832-3.682,9.7-7.324,14.531-11,2.049-1.56,4.156-2.958,6.695-3.3.249.346.435.485.45.638.713,7.714,2.978,15.1,4.693,22.61.165.717.467,1.407.574,2.129.145.976-.075,2.023-1.188,2.11a3.316,3.316,0,0,1-2.386-.811,6.147,6.147,0,0,1-1-2.523c-1.032-3.53-2.011-7.076-3.06-10.6a28.4,28.4,0,0,0-1.307-2.915c-6.724,9.8-11.288,20.04-16.211,30.068a271.542,271.542,0,0,0-12.505,31.257A324.559,324.559,0,0,0,469.849,244.686Z" transform="matrix(0.914, 0.407, -0.407, 0.914, -328.646, -318.798)" fill="#fff" fill-rule="evenodd"/>
</svg>
